<?xml version="1.0" encoding="UTF-8"?>
<svg id="Layer_2" data-name="Layer 2" xmlns="http://www.w3.org/2000/svg" viewBox="0 0 1421.87 140.94">
  <defs>
    <style>
      .cls-1 {
        fill: #c8c8c8;
        stroke-width: 0px;
      }
    </style>
  </defs>
  <g id="Layer_1-2" data-name="Layer 1">
    <g>
        <path class="cls-1" d="m627.39,139.98V2.47h81.13c10.98,0,20.66,1.46,29.04,4.38,8.38,2.92,15.46,6.86,21.24,11.81,5.78,4.95,10.59,11.65,14.43,20.09,3.84,8.44,5.76,19.43,5.76,32.95-.7,12.51-2.79,23.14-6.29,31.9-3.49,8.76-8.13,15.68-13.9,20.76-5.78,5.08-12.84,9.02-21.19,11.81-8.35,2.8-18.81,4.06-31.38,3.81h-78.85Zm45.9-103.42v69.13h26.19c5.9,0,10.67-1.25,14.28-3.76,3.62-2.51,6.57-5.71,8.86-9.62,2.29-3.9,3.74-10.93,4.38-21.09-.19-9.27-1.48-16.11-3.86-20.52-2.38-4.41-5.44-7.87-9.19-10.38-3.75-2.51-8.63-3.76-14.66-3.76h-26Z"/>
        <path class="cls-1" d="m1081.16,33.56c-6.28-10.57-15.4-18.56-27.33-24-11.94-5.42-26.12-8.13-42.57-8.13-12.37,0-23.45,1.54-33.23,4.62-9.77,3.08-18.03,7.6-24.76,13.58-6.74,5.96-11.84,13.31-15.34,22.04-3.49,8.72-5.23,18.84-5.23,30.32,0,10.04,1.34,19.06,4,27.05h-33.64l-21.23-13.14c10.66-2.54,18.86-6.03,24.56-10.48,5.72-4.44,9.71-9.97,12.01-16.57,2.28-6.59,2.15-15.99-.39-28.18-3.3-8.12-8.5-14.6-15.61-19.43-7.11-4.82-16.19-7.75-27.23-8.76h-89.51v137.5h49.71v-45.42l54.55,45.42,119.48-.22h3.71c15.72-.02,29.31-.25,40.77-5.39,11.91-5.33,21.01-13.3,27.29-23.9,6.29-10.6,9.43-23.42,9.43-38.48s-3.14-27.85-9.43-38.42Zm-205.14,26.47c-2.16,1.37-4.16,2.05-6,2.05h-34.65v-25.33h34.56c1.53,0,3.41.85,5.67,2.53,2.25,1.68,3.54,5.16,3.85,10.43-.12,5.52-1.26,8.96-3.42,10.33Zm165.14,19.65c-.4,3.18-1.2,5.95-1.84,8.52-1.11,4.41-2.56,7.02-6.83,10.6-4.32,3.61-12.5,4.73-21.51,4.73-11.68,0-19.52-2.86-23.48-9.41-3.97-6.53-5.95-12.93-5.95-21.76,0-21.47,9.38-32.45,28.14-32.93v-9.76c-2.9-.75-5.06-3.38-5.06-6.51,0-3.73,3.02-6.74,6.74-6.74s6.73,3.01,6.73,6.74c0,3.13-2.14,5.76-5.05,6.51v9.78c11.28.35,18.74,3.62,22.4,9.82,2.21,3.76,3.85,7.89,4.92,12.37,1.41,5.89,1.54,12.02.78,18.04Z"/>
        <path class="cls-1" d="m1099.47,2.47h44.76v137.51h-44.76V2.47Z"/>
        <path class="cls-1" d="m1155.43,139.98V2.47h81.13c10.98,0,20.66,1.46,29.04,4.38,8.38,2.92,15.46,6.86,21.24,11.81,5.78,4.95,10.59,11.65,14.43,20.09,3.84,8.44,5.76,19.43,5.76,32.95-.7,12.51-2.79,23.14-6.28,31.9-3.49,8.76-8.13,15.68-13.9,20.76-5.78,5.08-12.84,9.02-21.19,11.81-8.35,2.8-18.81,4.06-31.38,3.81h-78.85Zm45.9-103.42v69.13h26.19c5.9,0,10.67-1.25,14.28-3.76,3.62-2.51,6.57-5.71,8.86-9.62,2.29-3.9,3.75-10.93,4.38-21.09-.19-9.27-1.48-16.11-3.86-20.52-2.38-4.41-5.45-7.87-9.19-10.38-3.75-2.51-8.63-3.76-14.66-3.76h-26Z"/>
        <path class="cls-1" d="m1421.87,43.42h-33.52c-16.32-.51-18.73,4-7.24,13.52,20.57,18.03,30.66,35.55,30.28,52.57-.38,17.01-10.47,27.17-30.28,30.47h-73.13v-40.95h28.95c17.97.51,20.25-4.51,6.86-15.05-22.09-20.31-31.49-38.98-28.19-55.99,3.3-17.01,13.71-25.52,31.23-25.52h75.04v40.95Z"/>
        <g>
          <circle class="cls-1" cx="1000.01" cy="66.92" r="6.73"/>
          <circle class="cls-1" cx="1022.74" cy="66.92" r="6.73"/>
        </g>
    </g>
  </g>
</svg>