<?xml version="1.0" encoding="UTF-8"?>
<svg id="Layer_2" data-name="Layer 2" xmlns="http://www.w3.org/2000/svg" viewBox="0 0 563.16 502.7">
  <defs>
    <style>
      .cls-1 {
        fill: #93f;
        stroke-width: 0px;
      }
      .cls-background {
        fill: #fff;
      }
    </style>
  </defs>
  <g id="Layer_1-2" data-name="Layer 1">
    <g>
      <circle class="cls-background" cx="310.03" cy="227.66" r="150"/>
      <path class="cls-1" d="m529.53,114.63c-22.42-37.7-54.92-66.22-97.5-85.58C389.46,9.68,338.87,0,280.21,0c-44.15,0-83.67,5.49-118.52,16.47-34.88,11-64.33,27.13-88.32,48.41-24.01,21.3-42.23,47.5-54.69,78.64C6.22,174.65,0,210.71,0,251.69c0,54.12,10.87,99.91,32.6,137.38,21.75,37.47,53.74,65.79,95.97,84.92,42.21,19.13,92.78,28.7,151.64,28.7s109.55-9.52,152.01-28.54c42.46-19.02,74.9-47.43,97.31-85.24,22.41-37.81,33.62-83.56,33.62-137.22s-11.21-99.34-33.62-137.06Zm-142.67,164.51c-1.43,11.37-3.3,17.06-5.6,26.24-3.96,15.74-13.92,34.28-29.89,46.49-15.97,12.23-40.02,18.36-72.17,18.36-41.69,0-69.59-16.22-83.74-39.55-14.15-23.33-21.23-46.17-21.23-77.63,0-75.26,32.28-114.38,96.81-117.36v-34.9c-10.36-2.67-18.02-12.07-18.02-23.26,0-13.28,10.75-24.03,24.03-24.03s24.01,10.75,24.01,24.03c0,11.18-7.65,20.59-18.02,23.26v34.76c42.21.64,70.02,12.37,83.44,35.13,7.88,13.39,13.74,28.09,17.56,44.1,5.03,21.05,5.49,42.89,2.8,64.35Z"/>
      <circle class="cls-1" cx="244.03" cy="227.66" r="24.02"/>
      <circle class="cls-1" cx="325.1" cy="227.66" r="24.02"/>
    </g>
  </g>
</svg>